<?xml version="1.0" encoding="UTF-8"?>
<svg xmlns="http://www.w3.org/2000/svg" width="70" height="68" viewBox="0 0 70 68" fill="none">
  <g clip-path="url(#clip0_341_1037)">
    <path d="M52.4121 31.9424H48.8984V42.6542L52.4121 36.1885V31.9424Z" fill="#4F4D50"></path>
    <path d="M38.0649 34.741V41.9787H40.5049V24.1257L36.1128 21.6166L37.4793 18.9146H33.5752V22.0026V38.4081L36.1128 39.7591V34.0655L38.0649 34.741ZM36.2104 25.2837L38.0649 25.9592V31.0739L36.2104 30.3984V25.2837Z" fill="#4F4D50"></path>
    <path d="M32.6964 19.5898L27.0355 21.2304L25.8643 21.6164V42.0749L28.3043 40.5309V33.7757L30.2563 33.1002V39.3729L32.5988 37.9253V30.3981V19.5898H32.6964ZM30.354 29.7226L28.4019 30.3981V25.959L30.354 25.2835V29.7226Z" fill="#4F4D50"></path>
    <path d="M47.9221 30.7843V28.0823L46.2629 27.2137V24.0291L42.1636 18.625V25.0907L41.4804 24.7047L41.3828 24.6082V27.3102L42.6516 27.9857V30.4948V44.2947H46.2629V29.8193L47.9221 30.7843Z" fill="#4F4D50"></path>
    <path d="M23.5225 27.4066L23.0345 27.6961V35.4163L20.6921 29.2402L16.5928 31.7492L20.3993 40.2415V42.847H21.9609V37.0569L23.2297 42.847H24.5961L24.9865 42.654V26.5381L23.5225 27.4066Z" fill="#4F4D50"></path>
    <path d="M51.5337 30.7842L48.8984 27.3101V30.7842H51.5337Z" fill="#4F4D50"></path>
    <path d="M44.5068 49.0234L46.3612 45.8389H42.6523L44.5068 49.0234Z" fill="#4F4D50"></path>
    <path d="M8.6864 23.8362C7.22237 25.6698 6.05115 27.6963 5.17273 29.9159C0.585435 40.6277 3.9039 53.173 13.1761 60.4107L13.4689 60.6037C18.1538 64.1743 23.7171 66.4904 29.5732 67.3589C31.1349 67.5519 32.7941 67.7449 34.4533 67.7449C38.943 67.7449 43.3351 66.8764 47.532 65.2358C51.1433 63.7883 54.5594 61.6652 57.4874 59.0597C56.2186 59.8317 54.8522 60.5072 53.3881 61.0862C51.1433 62.0513 48.7032 62.6303 46.2632 62.9198C43.7255 63.2093 41.0903 63.2093 38.5526 62.9198C30.9397 61.8583 24.2051 57.9982 19.6178 52.015C14.8353 45.9353 12.8833 38.4081 13.9569 30.7844C14.8353 24.7048 17.4706 19.3006 21.6675 14.958C20.9843 15.151 20.2034 15.4405 19.5202 15.73C15.3233 17.3706 11.5169 20.1691 8.6864 23.8362Z" fill="#009383"></path>
    <path d="M18.642 13.4139C20.8868 12.4488 23.3269 11.8698 25.7669 11.5803C27.0357 11.3873 28.3046 11.2908 29.5734 11.2908C36.0151 11.2908 42.0665 13.3174 47.2394 17.274C52.1195 21.0376 55.5355 26.0557 57.2924 31.8458C58.4636 26.6347 58.0732 21.3271 55.9259 16.3089C55.0475 14.1859 53.8763 12.1593 52.4123 10.2293C47.4346 3.8601 39.6264 0 31.4278 0C28.0118 0 24.6933 0.675518 21.4724 1.93005C21.082 2.12306 20.6916 2.21956 20.3012 2.41256C12.2002 6.07966 5.8561 12.6418 2.44003 20.8446C-0.0976208 27.1172 -0.683233 33.9689 0.683195 40.5311C0.585593 36.5745 1.36641 32.6179 2.92804 28.9508C3.90406 26.6347 5.17289 24.4151 6.83212 22.3886C9.85779 18.432 13.9571 15.3439 18.642 13.4139Z" fill="#009383"></path>
    <path d="M52.5099 58.7701C61.1965 55.296 67.3454 47.3828 68.7118 38.3115V37.9255C69.4926 32.0388 68.7118 26.0557 66.467 20.555C63.0509 12.3523 56.7068 5.79015 48.4106 2.21955C47.4346 1.83354 46.4586 1.44753 45.4825 1.06152C48.8986 2.99157 51.9243 5.50064 54.3643 8.58872C55.926 10.6153 57.1948 12.8348 58.1708 15.1509C61.0989 22.0991 61.0013 29.8193 58.0732 36.864C55.1451 44.0052 49.4842 49.5058 42.3593 52.4009C38.8456 53.8484 35.2343 54.5239 31.4278 54.5239C29.0854 54.5239 26.8405 54.2344 24.5957 53.6554C28.5974 57.3225 33.4775 59.5421 38.9432 60.3141C41.2857 60.6036 43.6281 60.6036 45.9705 60.3141C48.2154 60.2176 50.3626 59.6386 52.5099 58.7701Z" fill="#009383"></path>
  </g>
  <defs>
    <clipPath id="clip0_341_1037">
      <rect width="69.0046" height="67.6483" fill="white"></rect>
    </clipPath>
  </defs>
</svg>
